<svg width="106" height="45" viewBox="0 0 106 45" fill="none" xmlns="http://www.w3.org/2000/svg">
<path d="M4.97254 3.6207V0.296187H4.11697V3.63699C4.11697 4.67997 3.69326 5.23406 2.79694 5.23406C1.94137 5.23406 1.49322 4.65553 1.49322 3.57995V0.296187H0.637644V3.6044C0.637644 5.17702 1.37099 6.08963 2.78065 6.08963C4.19845 6.08963 4.97254 5.21776 4.97254 3.6207ZM9.73198 6V3.54736C9.73198 2.28437 9.20234 1.63251 8.20824 1.63251C7.76824 1.63251 7.34452 1.81992 7.13267 2.12956V1.72214H6.29339V6H7.13267V3.49847C7.13267 2.80587 7.45045 2.4066 8.01269 2.4066C8.56677 2.4066 8.8927 2.71623 8.8927 3.57995V6H9.73198ZM11.9427 0.630268C11.9427 0.328781 11.6983 0.0843319 11.4049 0.0843319C11.1034 0.0843319 10.859 0.328781 10.859 0.630268C10.859 0.923607 11.1034 1.16806 11.4049 1.16806C11.6983 1.16806 11.9427 0.923607 11.9427 0.630268ZM11.8205 6V1.72214H10.9812V6H11.8205ZM15.2399 5.15258C15.0851 5.24221 14.8406 5.32369 14.6206 5.32369C14.311 5.32369 14.1806 5.20961 14.1806 4.81035V2.48808H15.2399V1.72214H14.1806V0.0598868L13.3577 0.499895V1.72214H12.7465V2.48808H13.3577V4.95702C13.3577 5.72296 13.7243 6.08963 14.3192 6.08963C14.6532 6.08963 14.9384 6.00815 15.1421 5.89407L15.2399 5.15258ZM23.1996 6L21.1625 2.36586L22.8329 0.296187H21.8633L20.1766 2.4066C19.9892 2.6429 19.6143 3.1155 19.5166 3.26217C19.5247 3.08291 19.5329 2.46364 19.5329 2.25178V0.296187H18.7017V6H19.5329V4.35404L20.5921 3.07476L22.2299 6H23.1996ZM27.2866 3.77551C27.2866 2.61845 26.6999 1.63251 25.4858 1.63251C24.3777 1.63251 23.6117 2.41475 23.6117 3.86514C23.6117 5.28295 24.4591 6.08963 25.4614 6.08963C26.1133 6.08963 26.5614 5.88592 26.9362 5.5274L26.4392 4.98961C26.154 5.20147 25.8688 5.33184 25.5103 5.33184C24.9888 5.33184 24.5243 4.98146 24.4347 4.15848H27.2622C27.2703 4.06885 27.2866 3.93033 27.2866 3.77551ZM26.4392 3.46588H24.451C24.5243 2.78142 24.8666 2.3903 25.4288 2.3903C26.1214 2.3903 26.3984 2.8792 26.4392 3.46588ZM31.7332 5.59258V1.72214H30.8939V2.12141C30.6658 1.86066 30.2584 1.63251 29.8265 1.63251C28.9465 1.63251 28.1398 2.32512 28.1398 3.79181C28.1398 5.42147 28.8732 6.08963 29.7858 6.08963C30.2339 6.08963 30.5843 5.87778 30.8939 5.59258V5.66592C30.8939 6.55408 30.6332 6.88002 29.4273 6.93705L29.7124 7.57262C31.2606 7.52373 31.7332 6.89631 31.7332 5.59258ZM30.9102 4.76961C30.6902 5.04665 30.3399 5.31554 29.9406 5.31554C29.3213 5.31554 28.9791 4.84294 28.9791 3.76736C28.9791 2.8629 29.305 2.4066 29.908 2.4066C30.3317 2.4066 30.7228 2.71623 30.9102 2.96883V4.76961ZM33.9766 0.630268C33.9766 0.328781 33.7321 0.0843319 33.4388 0.0843319C33.1373 0.0843319 32.8928 0.328781 32.8928 0.630268C32.8928 0.923607 33.1373 1.16806 33.4388 1.16806C33.7321 1.16806 33.9766 0.923607 33.9766 0.630268ZM33.8543 6V1.72214H33.0151V6H33.8543ZM38.4064 6V3.06661C38.4064 2.09696 37.7545 1.63251 36.8011 1.63251C36.1982 1.63251 35.7419 1.76288 35.3345 2.01548L35.6604 2.65105C35.9945 2.46364 36.3367 2.38215 36.7767 2.38215C37.2982 2.38215 37.5834 2.6429 37.5834 3.10735V3.42514C37.3471 3.31921 37.0293 3.26217 36.63 3.26217C35.6604 3.26217 34.927 3.69403 34.927 4.64738C34.927 5.69851 35.7174 6.08963 36.41 6.08963C36.8745 6.08963 37.29 5.86963 37.5834 5.57629V6H38.4064ZM37.5834 4.7859C37.3878 5.0548 36.9967 5.33184 36.5486 5.33184C35.9945 5.33184 35.7256 5.04665 35.7256 4.62294C35.7256 4.23182 36.0678 3.98737 36.6056 3.98737C37.0619 3.98737 37.3552 4.0607 37.5834 4.17478V4.7859ZM41.7537 5.15258C41.5989 5.24221 41.3545 5.32369 41.1345 5.32369C40.8248 5.32369 40.6944 5.20961 40.6944 4.81035V2.48808H41.7537V1.72214H40.6944V0.0598868L39.8715 0.499895V1.72214H39.2603V2.48808H39.8715V4.95702C39.8715 5.72296 40.2381 6.08963 40.833 6.08963C41.167 6.08963 41.4522 6.00815 41.6559 5.89407L41.7537 5.15258ZM46.0534 6V3.06661C46.0534 2.09696 45.4015 1.63251 44.4481 1.63251C43.8452 1.63251 43.3889 1.76288 42.9814 2.01548L43.3074 2.65105C43.6415 2.46364 43.9837 2.38215 44.4237 2.38215C44.9452 2.38215 45.2304 2.6429 45.2304 3.10735V3.42514C44.9941 3.31921 44.6763 3.26217 44.277 3.26217C43.3074 3.26217 42.574 3.69403 42.574 4.64738C42.574 5.69851 43.3644 6.08963 44.057 6.08963C44.5215 6.08963 44.937 5.86963 45.2304 5.57629V6H46.0534ZM45.2304 4.7859C45.0348 5.0548 44.6437 5.33184 44.1955 5.33184C43.6415 5.33184 43.3726 5.04665 43.3726 4.62294C43.3726 4.23182 43.7148 3.98737 44.2526 3.98737C44.7089 3.98737 45.0022 4.0607 45.2304 4.17478V4.7859ZM50.6963 6V3.54736C50.6963 2.28437 50.1667 1.63251 49.1726 1.63251C48.7326 1.63251 48.3088 1.81992 48.097 2.12956V1.72214H47.2577V6H48.097V3.49847C48.097 2.80587 48.4148 2.4066 48.977 2.4066C49.5311 2.4066 49.857 2.71623 49.857 3.57995V6H50.6963ZM59.3241 6V0.296187H58.4115L57.1566 3.3355C57.0181 3.66959 56.8551 4.077 56.7737 4.3133C56.7003 4.077 56.5211 3.66144 56.3825 3.3355L55.1033 0.296187H54.2232V6H55.0299V2.98513C55.0299 2.6429 55.0218 2.14585 55.0136 1.98289C55.0788 2.14585 55.2418 2.55327 55.3803 2.8792L56.7492 6.08963L58.1344 2.8792C58.2729 2.55327 58.4359 2.14585 58.5011 1.98289C58.4929 2.14585 58.4848 2.6429 58.4848 2.98513V6H59.3241ZM63.9573 6V3.06661C63.9573 2.09696 63.3055 1.63251 62.3521 1.63251C61.7492 1.63251 61.2928 1.76288 60.8854 2.01548L61.2114 2.65105C61.5454 2.46364 61.8877 2.38215 62.3277 2.38215C62.8492 2.38215 63.1344 2.6429 63.1344 3.10735V3.42514C62.8981 3.31921 62.5803 3.26217 62.181 3.26217C61.2114 3.26217 60.478 3.69403 60.478 4.64738C60.478 5.69851 61.2684 6.08963 61.961 6.08963C62.4255 6.08963 62.841 5.86963 63.1344 5.57629V6H63.9573ZM63.1344 4.7859C62.9388 5.0548 62.5477 5.33184 62.0995 5.33184C61.5454 5.33184 61.2766 5.04665 61.2766 4.62294C61.2766 4.23182 61.6188 3.98737 62.1566 3.98737C62.6129 3.98737 62.9062 4.0607 63.1344 4.17478V4.7859ZM68.6003 6V3.54736C68.6003 2.28437 68.0706 1.63251 67.0765 1.63251C66.6365 1.63251 66.2128 1.81992 66.001 2.12956V0.0598868L65.1617 0.499895V6H66.001V3.49847C66.001 2.80587 66.3188 2.4066 66.881 2.4066C67.4351 2.4066 67.761 2.71623 67.761 3.57995V6H68.6003ZM73.0844 6V3.06661C73.0844 2.09696 72.4325 1.63251 71.4792 1.63251C70.8762 1.63251 70.4199 1.76288 70.0125 2.01548L70.3384 2.65105C70.6725 2.46364 71.0147 2.38215 71.4547 2.38215C71.9762 2.38215 72.2614 2.6429 72.2614 3.10735V3.42514C72.0251 3.31921 71.7073 3.26217 71.3081 3.26217C70.3384 3.26217 69.6051 3.69403 69.6051 4.64738C69.6051 5.69851 70.3955 6.08963 71.0881 6.08963C71.5525 6.08963 71.9681 5.86963 72.2614 5.57629V6H73.0844ZM72.2614 4.7859C72.0659 5.0548 71.6747 5.33184 71.2266 5.33184C70.6725 5.33184 70.4036 5.04665 70.4036 4.62294C70.4036 4.23182 70.7458 3.98737 71.2836 3.98737C71.7399 3.98737 72.0333 4.0607 72.2614 4.17478V4.7859ZM77.2792 4.82664C77.2792 4.01996 76.7903 3.75922 75.8369 3.39254C75.1932 3.13995 75.0465 2.98513 75.0465 2.77327C75.0465 2.54512 75.2258 2.38215 75.6332 2.38215C76.0406 2.38215 76.391 2.50438 76.7414 2.74883L77.1081 2.10511C76.7251 1.82807 76.1955 1.63251 75.6577 1.63251C74.8021 1.63251 74.1991 2.03178 74.1991 2.79772C74.1991 3.47403 74.5332 3.78366 75.454 4.14219C76.0732 4.37849 76.4481 4.53331 76.4481 4.85924C76.4481 5.16072 76.1955 5.33184 75.6658 5.33184C75.2665 5.33184 74.8184 5.18517 74.4191 4.90813L74.0362 5.5437C74.468 5.86148 75.0954 6.08963 75.674 6.08963C76.5132 6.08963 77.2792 5.77185 77.2792 4.82664ZM79.3572 0.630268C79.3572 0.328781 79.1127 0.0843319 78.8194 0.0843319C78.5179 0.0843319 78.2735 0.328781 78.2735 0.630268C78.2735 0.923607 78.5179 1.16806 78.8194 1.16806C79.1127 1.16806 79.3572 0.923607 79.3572 0.630268ZM79.235 6V1.72214H78.3957V6H79.235ZM83.5018 4.82664C83.5018 4.01996 83.0129 3.75922 82.0596 3.39254C81.4158 3.13995 81.2692 2.98513 81.2692 2.77327C81.2692 2.54512 81.4484 2.38215 81.8559 2.38215C82.2633 2.38215 82.6136 2.50438 82.964 2.74883L83.3307 2.10511C82.9477 1.82807 82.4181 1.63251 81.8803 1.63251C81.0247 1.63251 80.4218 2.03178 80.4218 2.79772C80.4218 3.47403 80.7558 3.78366 81.6766 4.14219C82.2959 4.37849 82.6707 4.53331 82.6707 4.85924C82.6707 5.16072 82.4181 5.33184 81.8884 5.33184C81.4892 5.33184 81.041 5.18517 80.6418 4.90813L80.2588 5.5437C80.6906 5.86148 81.3181 6.08963 81.8966 6.08963C82.7359 6.08963 83.5018 5.77185 83.5018 4.82664ZM89.4634 1.72214H88.6323L88.1271 3.79996C88.0456 4.12589 87.9641 4.52516 87.9152 4.73701C87.8663 4.52516 87.7767 4.14219 87.687 3.80811L87.1085 1.72214H86.4322L85.8618 3.79996C85.7722 4.13404 85.6744 4.52516 85.6255 4.73701C85.5848 4.53331 85.4952 4.12589 85.4137 3.79996L84.9085 1.72214H84.0774L85.2507 6H85.9678L86.5381 3.84885C86.6278 3.52292 86.7174 3.1318 86.7581 2.92809C86.7989 3.1318 86.8885 3.51477 86.9781 3.8407L87.5567 6H88.2737L89.4634 1.72214ZM93.3995 6V3.06661C93.3995 2.09696 92.7476 1.63251 91.7942 1.63251C91.1913 1.63251 90.735 1.76288 90.3275 2.01548L90.6535 2.65105C90.9876 2.46364 91.3298 2.38215 91.7698 2.38215C92.2913 2.38215 92.5765 2.6429 92.5765 3.10735V3.42514C92.3402 3.31921 92.0224 3.26217 91.6231 3.26217C90.6535 3.26217 89.9201 3.69403 89.9201 4.64738C89.9201 5.69851 90.7105 6.08963 91.4031 6.08963C91.8676 6.08963 92.2831 5.86963 92.5765 5.57629V6H93.3995ZM92.5765 4.7859C92.3809 5.0548 91.9898 5.33184 91.5416 5.33184C90.9876 5.33184 90.7187 5.04665 90.7187 4.62294C90.7187 4.23182 91.0609 3.98737 91.5987 3.98737C92.055 3.98737 92.3483 4.0607 92.5765 4.17478V4.7859ZM4.89921 14.2481C4.89921 13.4577 4.38586 13.0422 3.93771 12.9199C4.35327 12.7162 4.66291 12.3577 4.66291 11.7792C4.66291 10.8177 4.01919 10.2962 3.0251 10.2962H0.678385V16H2.94361C4.1903 16 4.89921 15.4052 4.89921 14.2481ZM3.80733 11.8281C3.80733 12.2029 3.57918 12.5533 3.01695 12.5533H1.48507V11.0784H3.01695C3.58733 11.0784 3.80733 11.4044 3.80733 11.8281ZM4.04363 14.2726C4.04363 14.8348 3.76659 15.2178 3.0088 15.2178H1.48507V13.3274H3.03325C3.67696 13.3274 4.04363 13.6859 4.04363 14.2726ZM9.99845 14.3622C9.99845 13.3437 9.2977 12.9851 8.17323 12.6429C7.18729 12.3496 6.92654 12.154 6.92654 11.7547C6.92654 11.3718 7.21173 11.0458 7.87989 11.0458C8.44213 11.0458 8.84954 11.2251 9.20807 11.5918L9.81104 10.9806C9.30585 10.4917 8.71917 10.2066 7.94508 10.2066C6.89395 10.2066 6.06282 10.8095 6.06282 11.7955C6.06282 12.814 6.64135 13.1155 7.8473 13.474C8.80065 13.7592 9.13473 13.9792 9.13473 14.4192C9.13473 14.9733 8.75176 15.2504 7.95323 15.2504C7.41544 15.2504 6.85321 14.9896 6.47024 14.574L5.85911 15.1689C6.33986 15.7311 7.05692 16.0896 7.88804 16.0896C9.34659 16.0896 9.99845 15.3889 9.99845 14.3622ZM14.9769 16V15.1607H12.1331V10.2962H11.2775V16H14.9769ZM19.9836 14.9978L19.2747 14.5252C18.9814 14.9896 18.6147 15.2341 18.0199 15.2341C17.0258 15.2341 16.488 14.4274 16.488 13.1481C16.488 11.8688 17.0258 11.0621 18.0199 11.0621C18.6066 11.0621 18.908 11.2821 19.2014 11.7466L19.9592 11.274C19.5681 10.5814 18.9488 10.2066 18.0199 10.2066C16.545 10.2066 15.608 11.4207 15.608 13.1481C15.608 14.8755 16.545 16.0896 18.0199 16.0896C18.8836 16.0896 19.5762 15.6985 19.9836 14.9978ZM25.1562 16.5296C24.4636 15.7474 24.0317 14.8511 24.0317 13.5148C24.0317 12.2762 24.431 11.3392 25.1562 10.5325L24.7325 10.1658C23.9014 10.9562 23.1436 12.0318 23.1436 13.5555C23.1436 15.0304 23.9177 16.1222 24.7325 16.8963L25.1562 16.5296ZM29.9844 16V15.1607H27.1406V10.2962H26.2851V16H29.9844ZM34.3607 13.7755C34.3607 12.6185 33.774 11.6325 32.5599 11.6325C31.4517 11.6325 30.6858 12.4147 30.6858 13.8651C30.6858 15.2829 31.5332 16.0896 32.5354 16.0896C33.1873 16.0896 33.6355 15.8859 34.0103 15.5274L33.5132 14.9896C33.2281 15.2015 32.9429 15.3318 32.5843 15.3318C32.0628 15.3318 31.5984 14.9815 31.5088 14.1585H34.3362C34.3444 14.0689 34.3607 13.9303 34.3607 13.7755ZM33.5132 13.4659H31.5251C31.5984 12.7814 31.9406 12.3903 32.5029 12.3903C33.1955 12.3903 33.4725 12.8792 33.5132 13.4659ZM38.6212 16V13.0666C38.6212 12.097 37.9693 11.6325 37.016 11.6325C36.413 11.6325 35.9567 11.7629 35.5493 12.0155L35.8752 12.651C36.2093 12.4636 36.5515 12.3822 36.9916 12.3822C37.513 12.3822 37.7982 12.6429 37.7982 13.1074V13.4251C37.5619 13.3192 37.2441 13.2622 36.8449 13.2622C35.8752 13.2622 35.1419 13.694 35.1419 14.6474C35.1419 15.6985 35.9323 16.0896 36.6249 16.0896C37.0893 16.0896 37.5049 15.8696 37.7982 15.5763V16H38.6212ZM37.7982 14.7859C37.6027 15.0548 37.2116 15.3318 36.7634 15.3318C36.2093 15.3318 35.9404 15.0466 35.9404 14.6229C35.9404 14.2318 36.2826 13.9874 36.8204 13.9874C37.2767 13.9874 37.5701 14.0607 37.7982 14.1748V14.7859ZM42.3678 11.8118C42.1967 11.6977 41.9849 11.6325 41.6426 11.6325C41.2189 11.6325 40.8604 11.8444 40.6648 12.1296V11.7221H39.8256V16H40.6648V13.5555C40.6648 12.8303 40.9745 12.4555 41.5041 12.4555C41.7812 12.4555 41.9686 12.5125 42.1478 12.6103L42.3678 11.8118ZM46.6699 16V13.5474C46.6699 12.2844 46.1402 11.6325 45.1462 11.6325C44.7061 11.6325 44.2824 11.8199 44.0706 12.1296V11.7221H43.2313V16H44.0706V13.4985C44.0706 12.8059 44.3884 12.4066 44.9506 12.4066C45.5047 12.4066 45.8306 12.7162 45.8306 13.58V16H46.6699ZM48.8806 10.6303C48.8806 10.3288 48.6362 10.0843 48.3428 10.0843C48.0414 10.0843 47.7969 10.3288 47.7969 10.6303C47.7969 10.9236 48.0414 11.1681 48.3428 11.1681C48.6362 11.1681 48.8806 10.9236 48.8806 10.6303ZM48.7584 16V11.7221H47.9191V16H48.7584ZM53.4734 16V13.5474C53.4734 12.2844 52.9438 11.6325 51.9497 11.6325C51.5097 11.6325 51.086 11.8199 50.8741 12.1296V11.7221H50.0348V16H50.8741V13.4985C50.8741 12.8059 51.1919 12.4066 51.7541 12.4066C52.3082 12.4066 52.6341 12.7162 52.6341 13.58V16H53.4734ZM58.0879 15.5926V11.7221H57.2486V12.1214C57.0205 11.8607 56.613 11.6325 56.1812 11.6325C55.3012 11.6325 54.4945 12.3251 54.4945 13.7918C54.4945 15.4215 55.2278 16.0896 56.1404 16.0896C56.5886 16.0896 56.939 15.8778 57.2486 15.5926V15.6659C57.2486 16.5541 56.9879 16.88 55.7819 16.9371L56.0671 17.5726C57.6153 17.5237 58.0879 16.8963 58.0879 15.5926ZM57.2649 14.7696C57.0449 15.0466 56.6945 15.3155 56.2953 15.3155C55.676 15.3155 55.3338 14.8429 55.3338 13.7674C55.3338 12.8629 55.6597 12.4066 56.2627 12.4066C56.6864 12.4066 57.0775 12.7162 57.2649 12.9688V14.7696ZM65.7542 14.9978L65.0453 14.5252C64.7519 14.9896 64.3853 15.2341 63.7904 15.2341C62.7963 15.2341 62.2585 14.4274 62.2585 13.1481C62.2585 11.8688 62.7963 11.0621 63.7904 11.0621C64.3771 11.0621 64.6786 11.2821 64.9719 11.7466L65.7297 11.274C65.3386 10.5814 64.7193 10.2066 63.7904 10.2066C62.3156 10.2066 61.3785 11.4207 61.3785 13.1481C61.3785 14.8755 62.3156 16.0896 63.7904 16.0896C64.6541 16.0896 65.3468 15.6985 65.7542 14.9978ZM70.3151 13.8407C70.3151 12.5044 69.5003 11.6325 68.4084 11.6325C67.3328 11.6325 66.5017 12.4636 66.5017 13.8651C66.5017 15.2015 67.3084 16.0896 68.384 16.0896C69.484 16.0896 70.3151 15.2585 70.3151 13.8407ZM69.4677 13.8651C69.4677 14.6474 69.0521 15.2911 68.4166 15.2911C67.781 15.2911 67.3491 14.7778 67.3491 13.8407C67.3491 12.9933 67.7403 12.431 68.3758 12.431C69.0521 12.431 69.4677 12.9933 69.4677 13.8651ZM77.1622 16V13.5474C77.1622 12.2844 76.6896 11.6325 75.6955 11.6325C75.0274 11.6325 74.6933 11.877 74.3837 12.2599C74.1555 11.8525 73.7888 11.6325 73.2103 11.6325C72.7703 11.6325 72.4036 11.8199 72.1918 12.1296V11.7221H71.3525V16H72.1918V13.4985C72.1918 12.8059 72.4525 12.4066 73.0148 12.4066C73.5688 12.4066 73.8377 12.7162 73.8377 13.58V16H74.677V13.4985C74.677 12.8059 74.9378 12.4066 75.5 12.4066C76.0541 12.4066 76.323 12.7162 76.323 13.58V16H77.1622ZM84.1806 16V13.5474C84.1806 12.2844 83.708 11.6325 82.7139 11.6325C82.0458 11.6325 81.7117 11.877 81.402 12.2599C81.1739 11.8525 80.8072 11.6325 80.2287 11.6325C79.7887 11.6325 79.422 11.8199 79.2101 12.1296V11.7221H78.3709V16H79.2101V13.4985C79.2101 12.8059 79.4709 12.4066 80.0331 12.4066C80.5872 12.4066 80.8561 12.7162 80.8561 13.58V16H81.6954V13.4985C81.6954 12.8059 81.9561 12.4066 82.5184 12.4066C83.0724 12.4066 83.3413 12.7162 83.3413 13.58V16H84.1806ZM88.7952 16V11.7221H87.9559V14.2237C87.9559 14.9163 87.6382 15.3155 87.0759 15.3155C86.5218 15.3155 86.1959 15.0059 86.1959 14.1422V11.7221H85.3566V14.1748C85.3566 15.4378 85.8863 16.0896 86.8804 16.0896C87.3204 16.0896 87.7441 15.9022 87.9559 15.5926V16H88.7952ZM93.4749 16V13.5474C93.4749 12.2844 92.9452 11.6325 91.9512 11.6325C91.5111 11.6325 91.0874 11.8199 90.8756 12.1296V11.7221H90.0363V16H90.8756V13.4985C90.8756 12.8059 91.1934 12.4066 91.7556 12.4066C92.3097 12.4066 92.6356 12.7162 92.6356 13.58V16H93.4749ZM95.6856 10.6303C95.6856 10.3288 95.4412 10.0843 95.1478 10.0843C94.8463 10.0843 94.6019 10.3288 94.6019 10.6303C94.6019 10.9236 94.8463 11.1681 95.1478 11.1681C95.4412 11.1681 95.6856 10.9236 95.6856 10.6303ZM95.5634 16V11.7221H94.7241V16H95.5634ZM98.9828 15.1526C98.828 15.2422 98.5836 15.3237 98.3636 15.3237C98.0539 15.3237 97.9235 15.2096 97.9235 14.8103V12.4881H98.9828V11.7221H97.9235V10.0599L97.1006 10.4999V11.7221H96.4894V12.4881H97.1006V14.957C97.1006 15.723 97.4672 16.0896 98.0621 16.0896C98.3961 16.0896 98.6813 16.0081 98.885 15.8941L98.9828 15.1526ZM103.609 11.7221H102.721L101.996 13.8326C101.866 14.1992 101.686 14.8103 101.613 15.0629C101.564 14.8266 101.369 14.1911 101.238 13.8163L100.537 11.7221H99.6167L101.189 15.9185L100.57 17.5074H101.458L103.609 11.7221ZM105.953 13.4985C105.953 12.0236 105.179 10.9318 104.364 10.1577L103.94 10.5243C104.633 11.3066 105.065 12.2029 105.065 13.5392C105.065 14.7778 104.666 15.7148 103.94 16.5215L104.364 16.8882C105.195 16.0978 105.953 15.0222 105.953 13.4985ZM7.90593 40.2233V35.4443H6.19479V40.2477C6.19479 41.6166 5.52255 42.46 4.43475 42.46C3.34695 42.46 2.68694 41.5922 2.68694 40.2233V35.4443H0.975798V40.2477C0.975798 42.7411 2.36916 44.1344 4.43475 44.1344C6.61035 44.1344 7.90593 42.7044 7.90593 40.2233ZM16.9787 44V35.4443H15.292V39.0621C15.292 39.5388 15.3165 40.6144 15.3165 40.9322C15.2065 40.7122 14.9253 40.2844 14.7176 39.9666L11.6864 35.4443H10.0486V44H11.7353V40.2355C11.7353 39.7588 11.7108 38.6832 11.7108 38.3654C11.8208 38.5855 12.102 39.0132 12.3097 39.331L15.4509 44H16.9787ZM21.013 44V35.4443H19.3018V44H21.013ZM30.4713 35.4443H28.6012L27.0245 40.3944C26.8656 40.8955 26.7067 41.4822 26.6334 41.8C26.5601 41.4944 26.389 40.8711 26.2301 40.3944L24.6167 35.4443H22.7222L25.7656 44H27.4279L30.4713 35.4443ZM38.182 44V42.3255H33.7697V40.2599H36.2264V38.5977H33.7697V37.1188H37.9987V35.4443H32.0586V44H38.182ZM46.9381 44L45.3002 40.6755C46.388 40.2477 46.9381 39.441 46.9381 38.1577C46.9381 36.3365 45.6058 35.4443 43.9924 35.4443H40.0079V44H41.7191V40.9199H43.4424L44.9702 44H46.9381ZM45.178 38.1943C45.178 38.9399 44.7502 39.3066 43.9558 39.3066H41.7191V37.1065H43.9558C44.7136 37.1065 45.178 37.4243 45.178 38.1943ZM55.0033 41.4088C55.0033 39.551 53.4999 39.0866 52.1432 38.7688C50.7865 38.451 50.4198 38.2799 50.4198 37.7421C50.4198 37.3632 50.7254 36.9721 51.6421 36.9721C52.4243 36.9721 53.0354 37.2899 53.5854 37.8521L54.8199 36.6543C54.0132 35.811 53.0354 35.3098 51.7032 35.3098C50.0165 35.3098 48.6476 36.2632 48.6476 37.8154C48.6476 39.5021 49.7476 40.0033 51.3243 40.3699C52.9377 40.7366 53.231 40.9811 53.231 41.5311C53.231 42.1789 52.7543 42.46 51.7399 42.46C50.921 42.46 50.1509 42.1789 49.552 41.4822L48.3176 42.5822C48.9654 43.5355 50.212 44.1344 51.6421 44.1344C53.9766 44.1344 55.0033 43.0344 55.0033 41.4088ZM58.6472 44V35.4443H56.936V44H58.6472ZM67.0421 37.131V35.4443H60.4175V37.131H62.8742V44H64.5854V37.131H67.0421ZM76.048 35.4443H74.1047L72.8946 37.4732C72.5768 38.011 72.1246 38.8299 71.9657 39.1477C71.8068 38.8299 71.3424 37.9866 71.0368 37.4732L69.8268 35.4443H67.859L71.0979 40.651V44H72.8091V40.6144L76.048 35.4443Z" fill="#0097DA"/>
<path d="M10.8556 28.317C10.8556 27.0295 10.2526 26.231 9.22596 25.791C9.9919 25.351 10.5949 24.7969 10.5949 23.5584C10.5949 21.6517 9.43781 20.5924 6.6022 20.5924H1.09395V32H6.56961C9.43781 32 10.8556 30.6474 10.8556 28.317ZM7.49852 23.9821C7.49852 24.5199 7.23777 24.8784 6.50442 24.8784H4.12512V23.0858H6.50442C7.25407 23.0858 7.49852 23.4769 7.49852 23.9821ZM7.75926 28.3822C7.75926 29.034 7.40074 29.5066 6.6185 29.5066H4.12512V27.2903H6.63479C7.38444 27.2903 7.75926 27.714 7.75926 28.3822ZM16.0835 32V20.5924H12.8568V32H16.0835ZM28.4789 32V20.5924H25.4477V23.705C25.4477 24.6339 25.464 26.1495 25.5455 26.6547C25.301 26.1821 24.2906 24.6665 23.7691 23.9658L21.2595 20.5924H18.4728V32H21.5039V28.5125C21.5039 27.5836 21.4876 26.068 21.4061 25.5628C21.6995 26.068 22.6773 27.5347 23.1825 28.2355L25.904 32H28.4789ZM40.7316 27.1273V20.5924H37.5049V27.1273C37.5049 28.5288 36.9834 29.3925 35.7449 29.3925C34.5063 29.3925 33.9522 28.5288 33.9522 27.1273V20.5924H30.7255V27.1273C30.7255 30.7452 32.8278 32.1793 35.696 32.1793C38.5642 32.1793 40.7316 30.7452 40.7316 27.1273ZM52.0585 28.4962C52.0585 26.3614 50.7874 25.4814 47.9192 24.7969C46.4525 24.4547 46.0451 24.2591 46.0451 23.8354C46.0451 23.428 46.2732 23.1346 47.2184 23.1346C48.3755 23.1346 49.3859 23.5258 50.3963 24.2102L51.9282 21.7331C50.7222 20.8857 49.3207 20.4131 47.3814 20.4131C44.6273 20.4131 42.8835 21.8635 42.8835 24.0147C42.8835 26.2962 44.2036 27.0458 46.9577 27.6814C48.4896 28.0399 48.897 28.3007 48.897 28.7244C48.897 29.2622 48.5385 29.4577 47.414 29.4577C46.3547 29.4577 44.9043 28.8873 44.0732 28.317L42.5413 30.7941C43.731 31.5763 45.5073 32.1793 47.3488 32.1793C50.0866 32.1793 52.0585 31.1037 52.0585 28.4962Z" fill="black"/>
</svg>
