<svg width="32" height="32" viewBox="0 0 32 32" fill="none" xmlns="http://www.w3.org/2000/svg">
<path d="M16 10.6667C17.8409 10.6667 19.3333 9.17428 19.3333 7.33333C19.3333 5.49238 17.8409 4 16 4C14.159 4 12.6666 5.49238 12.6666 7.33333C12.6666 9.17428 14.159 10.6667 16 10.6667Z" stroke="#262626" stroke-width="2" stroke-linecap="round" stroke-linejoin="round"/>
<path d="M16 28.4907L22.7933 21.696C23.1797 21.3146 23.4869 20.8605 23.6971 20.3599C23.9073 19.8593 24.0164 19.3221 24.0181 18.7792C24.0199 18.2362 23.9143 17.6983 23.7073 17.1964C23.5003 16.6944 23.1961 16.2384 22.8122 15.8544C22.4283 15.4705 21.9723 15.1663 21.4703 14.9594C20.9684 14.7524 20.4304 14.6468 19.8875 14.6485C19.3446 14.6503 18.8073 14.7594 18.3068 14.9696C17.8062 15.1798 17.3521 15.487 16.9707 15.8733L16 16.8427L15.0293 15.8733C14.6479 15.487 14.1938 15.1798 13.6932 14.9696C13.1926 14.7594 12.6554 14.6503 12.1125 14.6485C11.5695 14.6468 11.0316 14.7524 10.5297 14.9594C10.0277 15.1663 9.57167 15.4705 9.18775 15.8544C8.80384 16.2384 8.49964 16.6944 8.29268 17.1964C8.08572 17.6983 7.98008 18.2362 7.98183 18.7792C7.98359 19.3221 8.09271 19.8593 8.30292 20.3599C8.51312 20.8605 8.82026 21.3146 9.20666 21.696L16 28.4907Z" stroke="#262626" stroke-width="2" stroke-linecap="round" stroke-linejoin="round"/>
</svg>
