<svg width="32" height="32" viewBox="0 0 32 32" fill="none" xmlns="http://www.w3.org/2000/svg">
<path d="M4 25.3333C5.82423 24.2801 7.89356 23.7256 10 23.7256C12.1064 23.7256 14.1758 24.2801 16 25.3333C17.8242 24.2801 19.8936 23.7256 22 23.7256C24.1064 23.7256 26.1758 24.2801 28 25.3333M4 8C5.82423 6.94678 7.89356 6.3923 10 6.3923C12.1064 6.3923 14.1758 6.94678 16 8C17.8242 6.94678 19.8936 6.3923 22 6.3923C24.1064 6.3923 26.1758 6.94678 28 8M4 8V25.3333M16 8V25.3333M28 8V25.3333" stroke="#262626" stroke-width="2" stroke-linecap="round" stroke-linejoin="round"/>
</svg>
