<svg width="32" height="32" viewBox="0 0 32 32" fill="none" xmlns="http://www.w3.org/2000/svg">
<path d="M4 4V28H28" stroke="#262626" stroke-width="2" stroke-linecap="round" stroke-linejoin="round"/>
<path d="M12 14.6666C13.4728 14.6666 14.6667 13.4727 14.6667 12C14.6667 10.5272 13.4728 9.33331 12 9.33331C10.5273 9.33331 9.33337 10.5272 9.33337 12C9.33337 13.4727 10.5273 14.6666 12 14.6666Z" stroke="#262626" stroke-width="2" stroke-linecap="round" stroke-linejoin="round"/>
<path d="M25.3333 12C26.8061 12 28 10.8061 28 9.33335C28 7.86059 26.8061 6.66669 25.3333 6.66669C23.8605 6.66669 22.6666 7.86059 22.6666 9.33335C22.6666 10.8061 23.8605 12 25.3333 12Z" stroke="#262626" stroke-width="2" stroke-linecap="round" stroke-linejoin="round"/>
<path d="M18.6667 22.6666C20.1394 22.6666 21.3333 21.4727 21.3333 20C21.3333 18.5272 20.1394 17.3333 18.6667 17.3333C17.1939 17.3333 16 18.5272 16 20C16 21.4727 17.1939 22.6666 18.6667 22.6666Z" stroke="#262626" stroke-width="2" stroke-linecap="round" stroke-linejoin="round"/>
<path d="M13.5466 14.16L16.6666 18M20.1173 17.7707L23.9 11.656" stroke="#262626" stroke-width="2" stroke-linecap="round" stroke-linejoin="round"/>
</svg>
