<svg width="129" height="97" viewBox="0 0 129 97" fill="none" xmlns="http://www.w3.org/2000/svg">
<path fill-rule="evenodd" clip-rule="evenodd" d="M120.186 96.5C120.186 96.5 128.199 96.5 128.199 88.5C128.199 80.5 120.186 56.5 88.1367 56.5C56.087 56.5 48.0745 80.5 48.0745 88.5C48.0745 96.5 56.087 96.5 56.087 96.5H120.186ZM56.2632 88.5C56.204 88.4919 56.1452 88.4812 56.087 88.468C56.095 86.356 57.425 80.228 62.1764 74.708C66.5993 69.532 74.3713 64.5 88.1367 64.5C101.894 64.5 109.666 69.54 114.097 74.708C118.848 80.228 120.17 86.364 120.186 88.468L120.122 88.484C120.085 88.4903 120.048 88.4956 120.01 88.5H56.2632ZM88.1367 40.5C92.3867 40.5 96.4627 38.8143 99.4679 35.8137C102.473 32.8131 104.161 28.7435 104.161 24.5C104.161 20.2565 102.473 16.1869 99.4679 13.1863C96.4627 10.1857 92.3867 8.5 88.1367 8.5C83.8866 8.5 79.8106 10.1857 76.8054 13.1863C73.8001 16.1869 72.1118 20.2565 72.1118 24.5C72.1118 28.7435 73.8001 32.8131 76.8054 35.8137C79.8106 38.8143 83.8866 40.5 88.1367 40.5ZM112.174 24.5C112.174 27.6517 111.552 30.7726 110.344 33.6844C109.136 36.5962 107.366 39.242 105.134 41.4706C102.901 43.6992 100.252 45.467 97.3353 46.6731C94.419 47.8792 91.2933 48.5 88.1367 48.5C84.98 48.5 81.8543 47.8792 78.938 46.6731C76.0216 45.467 73.3718 43.6992 71.1397 41.4706C68.9077 39.242 67.1371 36.5962 65.9291 33.6844C64.7211 30.7726 64.0994 27.6517 64.0994 24.5C64.0994 18.1348 66.6319 12.0303 71.1397 7.52944C75.6476 3.02856 81.7616 0.5 88.1367 0.5C94.5117 0.5 100.626 3.02856 105.134 7.52944C109.641 12.0303 112.174 18.1348 112.174 24.5ZM39.4211 64.5L39.4157 64.5081L39.4211 64.508V64.5Z" fill="#D7E024"/>
<path fill-rule="evenodd" clip-rule="evenodd" d="M12.0186 28.5C12.0186 22.1348 14.5511 16.0303 19.059 11.5294C23.5669 7.02856 29.6808 4.5 36.0559 4.5C42.431 4.5 48.545 7.02856 53.0528 11.5294C57.5607 16.0303 60.0932 22.1348 60.0932 28.5C60.0932 34.8652 57.5607 40.9697 53.0528 45.4706C48.545 49.9714 42.431 52.5 36.0559 52.5C29.6808 52.5 23.5669 49.9714 19.059 45.4706C14.5511 40.9697 12.0186 34.8652 12.0186 28.5ZM24.7246 17.1863C27.7299 14.1857 31.8058 12.5 36.0559 12.5C40.306 12.5 44.3819 14.1857 47.3872 17.1863C50.3924 20.1869 52.0807 24.2565 52.0807 28.5C52.0807 32.7435 50.3924 36.8131 47.3872 39.8137C44.3819 42.8143 40.306 44.5 36.0559 44.5C31.8058 44.5 27.7299 42.8143 24.7246 39.8137C21.7194 36.8131 20.0311 32.7435 20.0311 28.5C20.0311 24.2565 21.7194 20.1869 24.7246 17.1863Z" fill="#E6E6E6"/>
<path fill-rule="evenodd" clip-rule="evenodd" d="M55.5742 58.74C52.369 57.7323 49.0652 57.0699 45.7189 56.764C43.8386 56.5855 41.9509 56.4974 40.0621 56.5C8.01242 56.5 0 80.5 0 88.5C0 93.836 2.66814 96.5 8.01242 96.5H41.7928C40.605 94.0025 40.0126 91.2643 40.0621 88.5C40.0621 80.42 43.0828 72.164 48.7957 65.268C50.7427 62.916 53.0102 60.716 55.5742 58.74ZM32.0497 88.5H8.01242C8.01242 86.42 9.32646 80.26 14.1019 74.708C18.468 69.6207 26.0544 64.6613 39.4157 64.5081L39.4211 64.5V64.508L39.4157 64.5081C34.6771 71.6205 32.1173 79.9578 32.0497 88.5Z" fill="#E6E6E6"/>
</svg>
