<svg width="96" height="96" viewBox="0 0 96 96" fill="none" xmlns="http://www.w3.org/2000/svg">
<path fill-rule="evenodd" clip-rule="evenodd" d="M41.616 55.68C39.2159 54.9242 36.7418 54.4274 34.236 54.198C32.828 54.0641 31.4144 53.998 30 54C6 54 0 72 0 78C0 82.002 1.998 84 6 84H31.296C30.4065 82.1269 29.9629 80.0732 30 78C30 71.94 32.262 65.748 36.54 60.576C37.998 58.812 39.696 57.162 41.616 55.68ZM10.56 67.656C13.8296 63.8405 19.5105 60.121 29.516 60.006C25.9675 65.3404 24.0506 71.5933 24 78H6C6 76.44 6.984 71.82 10.56 67.656ZM9 33C9 28.2261 10.8964 23.6477 14.2721 20.2721C17.6477 16.8964 22.2261 15 27 15C31.7739 15 36.3523 16.8964 39.7279 20.2721C43.1036 23.6477 45 28.2261 45 33C45 37.7739 43.1036 42.3523 39.7279 45.7279C36.3523 49.1036 31.7739 51 27 51C22.2261 51 17.6477 49.1036 14.2721 45.7279C10.8964 42.3523 9 37.7739 9 33ZM27 21C23.8174 21 20.7652 22.2643 18.5147 24.5147C16.2643 26.7652 15 29.8174 15 33C15 36.1826 16.2643 39.2348 18.5147 41.4853C20.7652 43.7357 23.8174 45 27 45C30.1826 45 33.2348 43.7357 35.4853 41.4853C37.7357 39.2348 39 36.1826 39 33C39 29.8174 37.7357 26.7652 35.4853 24.5147C33.2348 22.2643 30.1826 21 27 21Z" fill="#E6E6E6"/>
<path fill-rule="evenodd" clip-rule="evenodd" d="M84 30C84 32.3638 83.5344 34.7044 82.6298 36.8883C81.7252 39.0722 80.3994 41.0565 78.7279 42.7279C77.0565 44.3994 75.0722 45.7253 72.8883 46.6298C70.7044 47.5344 68.3638 48 66 48C63.6362 48 61.2956 47.5344 59.1117 46.6298C56.9278 45.7253 54.9435 44.3994 53.2721 42.7279C51.6006 41.0565 50.2748 39.0722 49.3702 36.8883C48.4656 34.7044 48 32.3638 48 30C48 25.2261 49.8964 20.6477 53.2721 17.2721C56.6477 13.8964 61.2261 12 66 12C70.7739 12 75.3523 13.8964 78.7279 17.2721C82.1036 20.6477 84 25.2261 84 30ZM74.4853 38.4853C72.2348 40.7357 69.1826 42 66 42C62.8174 42 59.7652 40.7357 57.5147 38.4853C55.2643 36.2348 54 33.1826 54 30C54 26.8174 55.2643 23.7652 57.5147 21.5147C59.7652 19.2643 62.8174 18 66 18C69.1826 18 72.2348 19.2643 74.4853 21.5147C76.7357 23.7652 78 26.8174 78 30C78 33.1826 76.7357 36.2348 74.4853 38.4853Z" fill="#B8C01B"/>
<path fill-rule="evenodd" clip-rule="evenodd" d="M90 84C90 84 96 84 96 78C96 72 90 54 66 54C42 54 36 72 36 78C36 84 42 84 42 84H90ZM42 77.976C42.0436 77.9859 42.0877 77.9939 42.132 78H89.868C89.8961 77.9967 89.9241 77.9927 89.952 77.988L90 77.976C89.988 76.398 88.998 71.796 85.44 67.656C82.122 63.78 76.302 60 66 60C55.692 60 49.872 63.774 46.56 67.656C43.002 71.796 42.006 76.392 42 77.976Z" fill="#B8C01B"/>
</svg>
