<svg width="96" height="97" viewBox="0 0 96 97" fill="none" xmlns="http://www.w3.org/2000/svg">
<g clip-path="url(#clip0_1_422)">
<path d="M26.1333 50.6333H69.8666V58.8467H74.1333V46.3667H50.1333V37.8333H45.8666V46.3667H21.8666V58.8467H26.1333V50.6333V50.6333Z" fill="#262626"/>
<path d="M37.3333 61.8333H10.6666C9.25216 61.8333 7.8956 62.3952 6.89541 63.3954C5.89522 64.3956 5.33331 65.7522 5.33331 67.1667V83.1667C5.33331 84.5812 5.89522 85.9377 6.89541 86.9379C7.8956 87.9381 9.25216 88.5 10.6666 88.5H37.3333C38.7478 88.5 40.1044 87.9381 41.1045 86.9379C42.1047 85.9377 42.6666 84.5812 42.6666 83.1667V67.1667C42.6666 65.7522 42.1047 64.3956 41.1045 63.3954C40.1044 62.3952 38.7478 61.8333 37.3333 61.8333ZM10.6666 83.1667V67.1667H37.3333V83.1667H10.6666Z" fill="#262626"/>
<path d="M85.3333 61.8333H58.6666C57.2522 61.8333 55.8956 62.3952 54.8954 63.3954C53.8952 64.3956 53.3333 65.7522 53.3333 67.1667V83.1667C53.3333 84.5812 53.8952 85.9377 54.8954 86.9379C55.8956 87.9381 57.2522 88.5 58.6666 88.5H85.3333C86.7478 88.5 88.1044 87.9381 89.1046 86.9379C90.1047 85.9377 90.6666 84.5812 90.6666 83.1667V67.1667C90.6666 65.7522 90.1047 64.3956 89.1046 63.3954C88.1044 62.3952 86.7478 61.8333 85.3333 61.8333ZM58.6666 83.1667V67.1667H85.3333V83.1667H58.6666Z" fill="#262626"/>
<path d="M34.6666 35.1667H61.3333C62.7478 35.1667 64.1044 34.6048 65.1045 33.6046C66.1047 32.6044 66.6666 31.2478 66.6666 29.8333V13.8333C66.6666 12.4188 66.1047 11.0623 65.1045 10.0621C64.1044 9.0619 62.7478 8.5 61.3333 8.5H34.6666C33.2522 8.5 31.8956 9.0619 30.8954 10.0621C29.8952 11.0623 29.3333 12.4188 29.3333 13.8333V29.8333C29.3333 31.2478 29.8952 32.6044 30.8954 33.6046C31.8956 34.6048 33.2522 35.1667 34.6666 35.1667ZM34.6666 13.8333H61.3333V29.8333H34.6666V13.8333Z" fill="#262626"/>
</g>
<defs>
<clipPath id="clip0_1_422">
<rect width="96" height="96" fill="white" transform="translate(0 0.5)"/>
</clipPath>
</defs>
</svg>
