<svg width="65" height="64" viewBox="0 0 65 64" fill="none" xmlns="http://www.w3.org/2000/svg">
<g clip-path="url(#clip0_2_5818)">
<path d="M17.9222 33.4222H47.0778V38.8978H49.9222V30.5778H33.9222V24.8889H31.0778V30.5778H15.0778V38.8978H17.9222V33.4222Z" fill="#262626"/>
<path d="M25.3889 40.8889H7.6111C6.66811 40.8889 5.76374 41.2635 5.09694 41.9303C4.43014 42.5971 4.05554 43.5014 4.05554 44.4444V55.1111C4.05554 56.0541 4.43014 56.9585 5.09694 57.6253C5.76374 58.2921 6.66811 58.6667 7.6111 58.6667H25.3889C26.3319 58.6667 27.2362 58.2921 27.903 57.6253C28.5698 56.9585 28.9444 56.0541 28.9444 55.1111V44.4444C28.9444 43.5014 28.5698 42.5971 27.903 41.9303C27.2362 41.2635 26.3319 40.8889 25.3889 40.8889ZM7.6111 55.1111V44.4444H25.3889V55.1111H7.6111Z" fill="#262626"/>
<path d="M57.3889 40.8889H39.6111C38.6681 40.8889 37.7637 41.2635 37.0969 41.9303C36.4301 42.5971 36.0555 43.5014 36.0555 44.4444V55.1111C36.0555 56.0541 36.4301 56.9585 37.0969 57.6253C37.7637 58.2921 38.6681 58.6667 39.6111 58.6667H57.3889C58.3319 58.6667 59.2362 58.2921 59.903 57.6253C60.5698 56.9585 60.9444 56.0541 60.9444 55.1111V44.4444C60.9444 43.5014 60.5698 42.5971 59.903 41.9303C59.2362 41.2635 58.3319 40.8889 57.3889 40.8889ZM39.6111 55.1111V44.4444H57.3889V55.1111H39.6111Z" fill="#262626"/>
<path d="M23.6111 23.1111H41.3889C42.3319 23.1111 43.2362 22.7365 43.903 22.0697C44.5698 21.4029 44.9444 20.4985 44.9444 19.5556V8.88888C44.9444 7.94589 44.5698 7.04152 43.903 6.37473C43.2362 5.70793 42.3319 5.33333 41.3889 5.33333H23.6111C22.6681 5.33333 21.7637 5.70793 21.0969 6.37473C20.4301 7.04152 20.0555 7.94589 20.0555 8.88888V19.5556C20.0555 20.4985 20.4301 21.4029 21.0969 22.0697C21.7637 22.7365 22.6681 23.1111 23.6111 23.1111ZM23.6111 8.88888H41.3889V19.5556H23.6111V8.88888Z" fill="#262626"/>
</g>
<defs>
<clipPath id="clip0_2_5818">
<rect width="64" height="64" fill="white" transform="translate(0.5)"/>
</clipPath>
</defs>
</svg>
