<svg width="33" height="32" viewBox="0 0 33 32" fill="none" xmlns="http://www.w3.org/2000/svg">
<path d="M17.1023 3.99738C17.1137 3.9974 17.126 3.99743 17.1391 3.99746L17.2807 3.9979C18.9243 4.00394 27.2545 4.06432 29.5005 4.66814C30.8774 5.03743 31.9615 6.12574 32.3295 7.50721C32.5321 8.2662 32.6733 9.275 32.7717 10.3125L32.7908 10.5203C32.8063 10.6937 32.8206 10.8675 32.8339 11.0406L32.8492 11.248C32.9807 13.0763 32.996 14.7871 32.9978 15.1614L32.998 15.2119C32.998 15.216 32.998 15.2228 32.998 15.2228V15.2511C32.998 15.2511 32.998 15.2579 32.998 15.262L32.9978 15.3125C32.996 15.7009 32.9795 17.5287 32.8339 19.4333L32.8175 19.6413L32.8 19.8496C32.7009 20.9947 32.5524 22.1318 32.3295 22.9667C31.9615 24.3481 30.8774 25.4367 29.5005 25.8057C27.1797 26.4299 18.3622 26.4736 17.1391 26.4767L17.0449 26.4768C17.0372 26.4769 17.0304 26.4769 17.0246 26.4769L16.9861 26.4769C16.9861 26.4769 16.9773 26.4769 16.9715 26.4769L16.8569 26.4767C16.2388 26.4751 13.6811 26.4632 11.0026 26.3712L10.6601 26.359C10.603 26.3569 10.5458 26.3548 10.4887 26.3526L10.1458 26.339L9.80376 26.3245C7.58475 26.2271 5.46905 26.0675 4.49578 25.8057C3.11894 25.4367 2.03474 24.3481 1.66676 22.9667C1.44383 22.1318 1.2952 20.9947 1.19612 19.8496L1.17865 19.6413L1.16223 19.4333C1.02181 17.598 1.00142 15.834 0.998463 15.3605L0.99811 15.2927C0.998085 15.2866 0.998064 15.281 0.998047 15.2759V15.198C0.998064 15.1928 0.998085 15.1872 0.99811 15.1811L0.998463 15.1134C1.00114 14.6846 1.01812 13.1973 1.12561 11.5571L1.13952 11.3514C1.14192 11.317 1.14436 11.2825 1.14684 11.248L1.16223 11.0406C1.17548 10.8675 1.1898 10.6937 1.20527 10.5203L1.22439 10.3125C1.32284 9.275 1.46409 8.2662 1.66676 7.50721C2.03474 6.12574 3.11894 5.03743 4.49578 4.66814C5.46905 4.40648 7.58475 4.24688 9.80376 4.14951L10.1458 4.13502L10.4887 4.12148C10.5458 4.1193 10.603 4.11716 10.6601 4.11505L11.0026 4.10287C13.5102 4.01679 15.9118 4.00085 16.7153 3.9979L16.8569 3.99746C16.8701 3.99743 16.8823 3.9974 16.8937 3.99738H17.1023ZM13.7981 10.4198V20.0541L22.1116 15.2372L13.7981 10.4198Z" fill="#E9E9E9"/>
</svg>
